<?xml version="1.0" encoding="UTF-8" standalone="no"?>
<svg
   xmlns:dc="http://purl.org/dc/elements/1.1/"
   xmlns:cc="http://creativecommons.org/ns#"
   xmlns:rdf="http://www.w3.org/1999/02/22-rdf-syntax-ns#"
   xmlns:svg="http://www.w3.org/2000/svg"
   xmlns="http://www.w3.org/2000/svg"
   xmlns:sodipodi="http://sodipodi.sourceforge.net/DTD/sodipodi-0.dtd"
   xmlns:inkscape="http://www.inkscape.org/namespaces/inkscape"
   inkscape:version="1.0 (4035a4fb49, 2020-05-01)"
   sodipodi:docname="export.svg"
   xml:space="preserve"
   style="enable-background:new 0 0 366.999 366.999;"
   viewBox="0 0 366.999 366.999"
   y="0px"
   x="0px"
   id="Layer_1"
   version="1.1"><metadata
   id="metadata38"><rdf:RDF><cc:Work
       rdf:about=""><dc:format>image/svg+xml</dc:format><dc:type
         rdf:resource="http://purl.org/dc/dcmitype/StillImage" /></cc:Work></rdf:RDF></metadata><defs
   id="defs36" /><sodipodi:namedview
   inkscape:current-layer="Layer_1"
   inkscape:window-maximized="1"
   inkscape:window-y="495"
   inkscape:window-x="1080"
   inkscape:cy="183.4995"
   inkscape:cx="183.4995"
   inkscape:zoom="1.7629476"
   showgrid="false"
   id="namedview34"
   inkscape:window-height="1053"
   inkscape:window-width="1920"
   inkscape:pageshadow="2"
   inkscape:pageopacity="0"
   guidetolerance="10"
   gridtolerance="10"
   objecttolerance="10"
   borderopacity="1"
   bordercolor="#666666"
   pagecolor="#ffffff" />
<path
   style="stroke-width:1;stroke-miterlimit:4;stroke-dasharray:none;fill:#4d4d4d;fill-opacity:1"
   d="m 363.59801,247.01 c 0.146,-0.177 0.27199,-0.365 0.40899,-0.547 0.15701,-0.209 0.319,-0.414 0.464,-0.632 0.14501,-0.216 0.27001,-0.441 0.402,-0.662 0.11801,-0.198 0.24301,-0.392 0.352,-0.596 0.121,-0.225 0.223,-0.458 0.33201,-0.688 0.10099,-0.213 0.20699,-0.423 0.298,-0.643 0.092,-0.223 0.16699,-0.451 0.24799,-0.678 0.085,-0.235 0.175,-0.467 0.248,-0.708 0.068,-0.226 0.11801,-0.454 0.17601,-0.683 0.062,-0.246 0.131,-0.49 0.181,-0.741 0.052,-0.261 0.082,-0.524 0.11999,-0.788 0.032,-0.221 0.074,-0.439 0.096,-0.664 0.048,-0.485 0.073,-0.973 0.074,-1.46 0,-0.007 9.9e-4,-0.013 9.9e-4,-0.02 0,-0.008 -9.9e-4,-0.017 -9.9e-4,-0.025 0,-0.486 -0.025,-0.971 -0.073,-1.455 -0.022,-0.225 -0.064,-0.442 -0.096,-0.664 -0.038,-0.263 -0.068,-0.526 -0.12001,-0.787 -0.05,-0.253 -0.12,-0.499 -0.18199,-0.747 -0.057,-0.226 -0.10701,-0.453 -0.17401,-0.677 -0.073,-0.242 -0.164,-0.476 -0.25,-0.713 -0.081,-0.225 -0.155,-0.452 -0.24599,-0.673 -0.092,-0.221 -0.19901,-0.432 -0.3,-0.647 -0.108,-0.229 -0.20901,-0.459 -0.329,-0.683 -0.11,-0.206 -0.23601,-0.401 -0.35501,-0.6 -0.131,-0.221 -0.256,-0.443 -0.4,-0.658 -0.147,-0.219 -0.31,-0.424 -0.46699,-0.635 -0.13601,-0.182 -0.262,-0.368 -0.40701,-0.544 -0.29899,-0.365 -0.616,-0.714 -0.94799,-1.049 -0.016,-0.016 -0.029,-0.034 -0.045,-0.05 l -37.499,-37.501 c -5.857,-5.857 -15.355,-5.858 -21.213,-0.001 -5.85799,5.858 -5.85799,15.355 0,21.213 l 11.894,11.895 -45.788,0.002 v -78.605 c 0.003,-0.133 0.02,-0.263 0.02,-0.396 0,-3.606 -1.287,-6.903 -3.407,-9.49 -0.021,-0.026 -0.042,-0.053 -0.064,-0.079 -0.276,-0.332 -0.567,-0.65 -0.871,-0.958 -0.043,-0.044 -0.087,-0.089 -0.131,-0.133 -0.132,-0.131 -0.255,-0.272 -0.393,-0.398 L 155.609,22.896 c -0.005,-0.004 -0.01,-0.009 -0.015,-0.014 -0.307,-0.306 -0.627,-0.593 -0.955,-0.868 -0.104,-0.087 -0.212,-0.169 -0.318,-0.253 -0.24,-0.19 -0.483,-0.374 -0.733,-0.548 -0.125,-0.088 -0.251,-0.174 -0.379,-0.258 -0.263,-0.172 -0.53,-0.333 -0.802,-0.487 -0.112,-0.063 -0.22,-0.132 -0.334,-0.193 -0.363,-0.194 -0.733,-0.372 -1.109,-0.534 -0.154,-0.067 -0.311,-0.124 -0.467,-0.186 -0.25,-0.099 -0.501,-0.192 -0.756,-0.277 -0.175,-0.058 -0.35,-0.114 -0.527,-0.166 -0.289,-0.084 -0.581,-0.158 -0.875,-0.225 -0.131,-0.029 -0.259,-0.066 -0.392,-0.093 -0.42,-0.084 -0.844,-0.146 -1.27,-0.193 -0.13,-0.015 -0.262,-0.023 -0.393,-0.035 -0.353,-0.031 -0.706,-0.048 -1.06,-0.054 C 145.148,18.51 145.076,18.5 145,18.5 H 15 c -8.2839998,0 -15,6.716 -15,15 v 300 c 0,8.284 6.7160002,15 15,15 h 240 c 8.284,0 15,-6.716 15,-15 v -80.999 l 45.786,0.001 -11.893,11.893 c -5.858,5.858 -5.858,15.355 0,21.213 2.92901,2.929 6.76801,4.394 10.606,4.394 3.838,0 7.678,-1.464 10.606,-4.394 l 37.499,-37.499 c 0.008,-0.008 0.014,-0.016 0.021,-0.023 0.343,-0.344 0.66701,-0.703 0.97301,-1.076 z M 160,69.713 218.787,128.5 H 160 Z M 240,318.5 H 30 v -270 h 100 v 95 c 0,8.284 6.716,15 15,15 h 95 v 64.001 L 174.999,222.5 c -8.284,0 -15,6.716 -15,15 0,8.284 6.716,15 15,15 L 240,252.501 Z"
   id="XMLID_223_" />
<g
   id="g3">
</g>
<g
   id="g5">
</g>
<g
   id="g7">
</g>
<g
   id="g9">
</g>
<g
   id="g11">
</g>
<g
   id="g13">
</g>
<g
   id="g15">
</g>
<g
   id="g17">
</g>
<g
   id="g19">
</g>
<g
   id="g21">
</g>
<g
   id="g23">
</g>
<g
   id="g25">
</g>
<g
   id="g27">
</g>
<g
   id="g29">
</g>
<g
   id="g31">
</g>
</svg>
