<svg width="130" height="129" viewBox="0 0 130 129" fill="none" 
	xmlns="http://www.w3.org/2000/svg">
	<g clip-path="url(#clip0)">
		<path d="M98.12 45.059L43.2965 79.0002L69.2772 94.0002L99.8311 75.0104L98.12 45.059Z" fill="#242400"/>
		<path d="M89.1885 40.5615L47.6266 66.5002L73.6074 81.5002L116.909 56.5002L89.1885 40.5615Z" fill="#4D4D4D"/>
		<path d="M90.9279 31.5002L47.6266 56.5002L73.6074 71.5002L116.909 46.5002L90.9279 31.5002Z" fill="#999999"/>
		<path d="M-0.00470588 49.0001L51.9565 78.9998L25.9756 94L-0.00470588 79.0004V49.0001Z" fill="#242400"/>
		<path d="M4.32527 41.5003L49.3587 67.5003L23.3779 82.5004L4.32527 71.5006L-0.00470216 69.0004V43.9999L4.32527 41.5003Z" fill="#4D4D4D"/>
		<path d="M-0.00470104 32.2141L2.59307 30.4999L47.6265 56.4999L21.6457 71.5L-0.00470104 59V32.2141Z" fill="#999999"/>
		<path d="M86.5978 94.0001L112.579 109L73.6074 116.5L60.617 109L86.5978 94.0001Z" fill="#242400"/>
		<path d="M82.2677 81.5001L123.836 105.5L86.5977 114L56.2868 96.5002L82.2677 81.5001Z" fill="#4D4D4D"/>
		<path d="M73.6073 71.5005L129.899 104V129H121.239L47.6265 86.5007L73.6073 71.5005Z" fill="#999999"/>
		<path d="M17.3156 94.0001L-0.00480652 109V129H8.65544L43.2965 109L17.3156 94.0001Z" fill="#242400"/>
		<path d="M21.6457 81.5001L-0.00482178 94.0002V123L47.6266 96.5002L21.6457 81.5001Z" fill="#4D4D4D"/>
		<path d="M21.5875 71.6192L-0.00480652 84.0002L-0.00482178 114L47.6266 86.5002L21.5875 71.6192Z" fill="#999999"/>
	</g>
	<defs>
		<clipPath id="clip0">
			<rect width="129.899" height="129" fill="white" transform="matrix(-1 0 0 1 129.899 0)"/>
		</clipPath>
	</defs>
</svg>
