<?xml version="1.0" encoding="UTF-8" standalone="no"?>
<svg
   xmlns:dc="http://purl.org/dc/elements/1.1/"
   xmlns:cc="http://creativecommons.org/ns#"
   xmlns:rdf="http://www.w3.org/1999/02/22-rdf-syntax-ns#"
   xmlns:svg="http://www.w3.org/2000/svg"
   xmlns="http://www.w3.org/2000/svg"
   xmlns:sodipodi="http://sodipodi.sourceforge.net/DTD/sodipodi-0.dtd"
   xmlns:inkscape="http://www.inkscape.org/namespaces/inkscape"
   inkscape:version="1.0 (4035a4fb49, 2020-05-01)"
   sodipodi:docname="settings-gears.svg"
   xml:space="preserve"
   viewBox="0 0 552.49901 552.40001"
   height="552.40002"
   width="552.49902"
   y="0px"
   x="0px"
   id="Capa_1"
   version="1.1"><metadata
   id="metadata45"><rdf:RDF><cc:Work
       rdf:about=""><dc:format>image/svg+xml</dc:format><dc:type
         rdf:resource="http://purl.org/dc/dcmitype/StillImage" /></cc:Work></rdf:RDF></metadata><defs
   id="defs43" /><sodipodi:namedview
   inkscape:current-layer="g8"
   inkscape:window-maximized="1"
   inkscape:window-y="495"
   inkscape:window-x="1080"
   inkscape:cy="461.35251"
   inkscape:cx="466.08851"
   inkscape:zoom="0.69407269"
   showgrid="false"
   id="namedview41"
   inkscape:window-height="1053"
   inkscape:window-width="1920"
   inkscape:pageshadow="2"
   inkscape:pageopacity="0"
   guidetolerance="10"
   gridtolerance="10"
   objecttolerance="10"
   borderopacity="1"
   bordercolor="#666666"
   pagecolor="#ffffff" />
<g
   transform="translate(-10e-4,-4.737)"
   id="g8">
	<path
   style="fill:#4d4d4d;fill-opacity:1"
   id="path2"
   d="m 61.2,341.538 c 4.9,16.8 11.7,33 20.3,48.2 l -24.5,30.9 c -8,10.1 -7.1,24.5 1.9,33.6 l 42.2,42.2 c 9.1,9.1 23.5,9.899 33.6,1.899 l 30.7,-24.3 c 15.8,9.101 32.6,16.2 50.1,21.2 l 4.6,39.5 c 1.5,12.8 12.3,22.4 25.1,22.4 h 59.7 c 12.8,0 23.6,-9.601 25.1,-22.4 l 4.4,-38.1 c 18.8,-4.9 36.8,-12.2 53.7,-21.7 l 29.7,23.5 c 10.1,8 24.5,7.1 33.6,-1.9 l 42.2,-42.2 c 9.1,-9.1 9.9,-23.5 1.9,-33.6 l -23.1,-29.3 c 9.6,-16.601 17.1,-34.3 22.1,-52.8 l 35.6,-4.1 c 12.801,-1.5 22.4,-12.3 22.4,-25.1 v -59.7 c 0,-12.8 -9.6,-23.6 -22.4,-25.1 l -35.1,-4.1 c -4.801,-18.3 -12,-35.8 -21.199,-52.2 l 21.6,-27.3 c 8,-10.1 7.1,-24.5 -1.9,-33.6 l -42.1,-42.1 c -9.1,-9.1 -23.5,-9.9 -33.6,-1.9 l -26.5,21 c -17.2,-10.1 -35.601,-17.8 -54.9,-23 l -4,-34.3 c -1.5,-12.8 -12.3,-22.4 -25.1,-22.4 h -59.7 c -12.8,0 -23.6,9.6 -25.1,22.4 l -4,34.3 c -19.8,5.3 -38.7,13.3 -56.3,23.8 l -27.5,-21.8 c -10.1,-8 -24.5,-7.1 -33.6,1.9 l -42.2,42.2 c -9.1,9.1 -9.9,23.5 -1.9,33.6 l 23,29.1 c -9.2,16.6 -16.2,34.3 -20.8,52.7 l -36.8,4.2 c -12.8,1.5 -22.4,12.3 -22.4,25.1 v 59.7 c 0,12.8 9.6,23.6 22.4,25.1 z m 216.3,-161.5 c 54.4,0 98.7,44.3 98.7,98.7 0,54.4 -44.3,98.7 -98.7,98.7 -54.399,0 -98.7,-44.3 -98.7,-98.7 0,-54.4 44.3,-98.7 98.7,-98.7 z" />
	
	
</g>
<g
   transform="translate(-10e-4,-4.737)"
   id="g10">
</g>
<g
   transform="translate(-10e-4,-4.737)"
   id="g12">
</g>
<g
   transform="translate(-10e-4,-4.737)"
   id="g14">
</g>
<g
   transform="translate(-10e-4,-4.737)"
   id="g16">
</g>
<g
   transform="translate(-10e-4,-4.737)"
   id="g18">
</g>
<g
   transform="translate(-10e-4,-4.737)"
   id="g20">
</g>
<g
   transform="translate(-10e-4,-4.737)"
   id="g22">
</g>
<g
   transform="translate(-10e-4,-4.737)"
   id="g24">
</g>
<g
   transform="translate(-10e-4,-4.737)"
   id="g26">
</g>
<g
   transform="translate(-10e-4,-4.737)"
   id="g28">
</g>
<g
   transform="translate(-10e-4,-4.737)"
   id="g30">
</g>
<g
   transform="translate(-10e-4,-4.737)"
   id="g32">
</g>
<g
   transform="translate(-10e-4,-4.737)"
   id="g34">
</g>
<g
   transform="translate(-10e-4,-4.737)"
   id="g36">
</g>
<g
   transform="translate(-10e-4,-4.737)"
   id="g38">
</g>
</svg>
